<?xml version="1.0" encoding="UTF-8"?> <svg xmlns="http://www.w3.org/2000/svg" id="Layer_1" data-name="Layer 1" width="390" height="128" viewBox="0 0 390 128"><defs><style>.cls-1{fill:#00a5c7;}.cls-2{fill:#03bfd7;}</style></defs><title>logo_dronevolt_menu</title><path class="cls-1" d="M123.7881,60.3672v7.31a2.5319,2.5319,0,0,1-.8642,1.9176,3.3879,3.3879,0,0,1-2.1576.81l-12.1238.0015-8.4668,5.6122a9.158,9.158,0,0,0,2.8778.4512h19.7388a8.4714,8.4714,0,0,0,5.9-2.2115,6.9769,6.9769,0,0,0,2.4312-5.3812V58.371a6.97,6.97,0,0,0-.4606-2.561Z"></path><path class="cls-1" d="M102.059,66.88V59.5683a2.4084,2.4084,0,0,1,.8691-1.9223,2.93,2.93,0,0,1,2.099-.8071l.0542.0024,12.1229-.0019,8.4692-5.6145a9.1891,9.1891,0,0,0-2.8811-.4492H103.0535a8.4993,8.4993,0,0,0-5.9,2.2162,7.0517,7.0517,0,0,0-2.4323,5.3772V68.8774A7.0706,7.0706,0,0,0,95.19,71.433Z"></path><path d="M38.0963,54.5411A8.1138,8.1138,0,0,0,34.785,51.775a9.7756,9.7756,0,0,0-4.3371-.9993H3.4252V76.47H30.4479a9.4883,9.4883,0,0,0,4.3176-.998,8.627,8.627,0,0,0,3.3056-2.7572A6,6,0,0,0,39.35,68.8774V58.3763A6.0486,6.0486,0,0,0,38.0963,54.5411Zm-27.3326,2.3,18.2368-.0024a2.78,2.78,0,0,1,2.1486.794,2.4475,2.4475,0,0,1,.8636,1.9354v8.1092a2.5289,2.5289,0,0,1-.8636,1.9176,3.3836,3.3836,0,0,1-2.1569.81H10.7637Z"></path><path d="M81.6159,64.5522a7.73,7.73,0,0,0-.3584-11.3593,9.247,9.247,0,0,0-6.4151-2.4172H49.8294V76.47h7.3379V67.31H68.36l7.5948,9.16h8.6137l-8.2708-9.3093A9.4336,9.4336,0,0,0,81.6159,64.5522ZM57.1673,56.8413l17.0206-.0024a2.1941,2.1941,0,0,1,1.782.63,1.9384,1.9384,0,0,1,.678,1.605,2.0357,2.0357,0,0,1-.6887,1.6076,2.4213,2.4213,0,0,1-1.7814.6375l-17.0105-.0184Z"></path><polygon points="148.905 59 170.367 76.42 170.427 76.47 177.639 76.47 177.639 50.776 170.285 50.776 170.285 68.263 148.823 50.826 148.761 50.776 141.568 50.776 141.568 76.47 148.905 76.47 148.905 59"></polygon><polygon points="188.063 76.47 219.693 76.47 219.693 70.405 195.399 70.405 195.399 66.498 215.092 66.498 215.092 60.526 195.399 60.526 195.399 56.841 219.693 56.841 219.693 50.776 188.063 50.776 188.063 76.47"></polygon><path d="M301.5378,59.07a2.1156,2.1156,0,0,0-1.6319-.6025H287.938a2.2206,2.2206,0,0,0-1.5948.615,1.8213,1.8213,0,0,0-.66,1.4593v6.1634a1.9482,1.9482,0,0,0,.66,1.4753,2.4542,2.4542,0,0,0,1.6378.5976l11.9179-.0008a2.5513,2.5513,0,0,0,1.6389-.6155,1.9229,1.9229,0,0,0,.6564-1.4566V60.5418A1.8608,1.8608,0,0,0,301.5378,59.07Z"></path><path d="M236.4628,50.7731V76.47H375.5375V50.7731Zm25.49,22.6133h-6.2678l-11.8436-19.527H250.3l8.5326,14.2678,8.5051-14.2678h6.459Zm43.9693-1.6816a6.4273,6.4273,0,0,1-4.4811,1.6816h-15.003a6.4671,6.4671,0,0,1-4.4833-1.6816,5.3618,5.3618,0,0,1-1.8489-4.0887V59.6306a5.3645,5.3645,0,0,1,1.8489-4.0878,6.4723,6.4723,0,0,1,4.4833-1.6834h15.003a6.4324,6.4324,0,0,1,4.4811,1.6834,5.2922,5.2922,0,0,1,1.8482,4.09l.0007,7.9837A5.2916,5.2916,0,0,1,305.9218,71.7048Zm34.2327,1.6816H317.11V53.8594h5.5769V68.7773h17.4675Zm27.5267-14.9189h-9.9451V73.3864h-5.5754V58.4675H342.23V53.8594h25.4512Z"></path><path class="cls-2" d="M131.11,64.6132v4.2917a7.0545,7.0545,0,0,1-2.4317,5.378,8.5139,8.5139,0,0,1-5.9,2.2151H103.0373a9.22,9.22,0,0,1-2.8827-.4489l8.4714-5.6163h12.1784C124.52,70.4328,131.11,71.0072,131.11,64.6132Z"></path><path d="M385.9805,50.7718A2.017,2.017,0,0,1,388,52.7866v2.2342a2.017,2.017,0,0,1-2.02,2.0189h-4.0288a2.0164,2.0164,0,0,1-2.0188-2.0189V52.7866a2.01,2.01,0,0,1,2.0192-2.0148Zm-4.7344,1.2363a1.2805,1.2805,0,0,0-.3887.9476v1.8956a1.3363,1.3363,0,0,0,1.3414,1.3415h3.5346a1.288,1.288,0,0,0,.9524-.3939,1.2617,1.2617,0,0,0,.389-.9476V52.9557a1.2981,1.2981,0,0,0-.3938-.9524,1.2154,1.2154,0,0,0-.9473-.389h-3.5349A1.2855,1.2855,0,0,0,381.2461,52.0081Zm3.7728.1923a1.1838,1.1838,0,0,1,.8472.32.958.958,0,0,1,.3479.7645,1,1,0,0,1-.3071.7237,1.2215,1.2215,0,0,1-.7549.3523l1.1079,1.25-1.08,0L384.1584,54.37h-1.5569V55.611l-.9293,0V52.2Zm-2.417,1.4238h2.3258a.3511.3511,0,0,0,.2607-.0963.3145.3145,0,0,0,.1011-.2379.298.298,0,0,0-.1007-.2379.3388.3388,0,0,0-.2611-.0916h-2.3258Z"></path><path class="cls-2" d="M105.0271,56.8389l.0542.0024,12.1227-.0024,2.5014-1.6575,5.9678-3.9564a9.2108,9.2108,0,0,0-2.8809-.4493H103.0535a8.4993,8.4993,0,0,0-5.9,2.2162,7.0517,7.0517,0,0,0-2.4323,5.3772v4.2917C94.7211,56.2671,101.3109,56.8389,105.0271,56.8389Z"></path></svg> 